<svg xmlns="http://www.w3.org/2000/svg" width="93.834" height="32" viewBox="0 0 93.834 32">
  <path id="Icon_awesome-barcode" data-name="Icon awesome-barcode" d="M0,36.5V4.5H3.3v32Zm4.922-.023V4.5H6.6V36.477Zm4.974,0V4.5H11.52V36.477Zm8.221,0V4.5h1.623V36.477Zm6.6,0V4.5h3.246V36.477Zm8.221,0V4.5h1.623V36.477Zm3.3,0V4.5h1.623V36.477Zm3.3,0V4.5h1.623V36.477Zm6.545,0V4.5h3.3V36.477Zm8.221,0V4.5h3.3V36.477Zm6.6,0V4.5h3.3V36.477Zm6.6,0V4.5h3.3V36.477Zm4.922,0V4.5h3.3V36.477Zm8.273,0V4.5h4.922V36.477Zm6.545,0V4.5h1.676V36.477Zm3.3.023V4.5h3.3v32Z" transform="translate(0 -4.5)" fill="#fff"/>
</svg>
