<svg xmlns="http://www.w3.org/2000/svg" width="884.362" height="610.655" viewBox="0 0 884.362 610.655">
  <g id="Group_40" data-name="Group 40" transform="translate(-896.684 -1161)">
    <path id="Path_29" data-name="Path 29" d="M13541,1355.332c117.4-95.788,77.024,57.1,193.405-83.092s140.827-83.444,150.436-73.827,110.034,142.536-43.96,254.983-33.68,224.648,0,237.107,148.908-190.567,179.056-124.175,292.944-37.438,241.39,88.5,163.508,25.1,163.508,25.1" transform="translate(-12644 53)" fill="none" stroke="#707070" stroke-width="1"/>
    <path id="Icon_awesome-map-pin" data-name="Icon awesome-map-pin" d="M7.875,22.285V33.3l1.548,2.322a.844.844,0,0,0,1.4,0L12.375,33.3V22.285a11.872,11.872,0,0,1-4.5,0ZM10.125,0A10.125,10.125,0,1,0,20.25,10.125,10.125,10.125,0,0,0,10.125,0Zm0,5.344a4.786,4.786,0,0,0-4.781,4.781.844.844,0,0,1-1.687,0,6.476,6.476,0,0,1,6.469-6.469.844.844,0,0,1,0,1.688Z" transform="translate(1153 1217)" fill="#707070"/>
    <path id="Icon_awesome-map-pin-2" data-name="Icon awesome-map-pin" d="M7.875,22.285V33.3l1.548,2.322a.844.844,0,0,0,1.4,0L12.375,33.3V22.285a11.872,11.872,0,0,1-4.5,0ZM10.125,0A10.125,10.125,0,1,0,20.25,10.125,10.125,10.125,0,0,0,10.125,0Zm0,5.344a4.786,4.786,0,0,0-4.781,4.781.844.844,0,0,1-1.687,0,6.476,6.476,0,0,1,6.469-6.469.844.844,0,0,1,0,1.688Z" transform="translate(1151 1502)" fill="#707070"/>
    <path id="Icon_awesome-map-pin-3" data-name="Icon awesome-map-pin" d="M7.875,22.285V33.3l1.548,2.322a.844.844,0,0,0,1.4,0L12.375,33.3V22.285a11.872,11.872,0,0,1-4.5,0ZM10.125,0A10.125,10.125,0,1,0,20.25,10.125,10.125,10.125,0,0,0,10.125,0Zm0,5.344a4.786,4.786,0,0,0-4.781,4.781.844.844,0,0,1-1.687,0,6.476,6.476,0,0,1,6.469-6.469.844.844,0,0,1,0,1.688Z" transform="translate(1592 1614)" fill="#707070"/>
    <path id="Icon_awesome-map-pin-4" data-name="Icon awesome-map-pin" d="M7.875,22.285V33.3l1.548,2.322a.844.844,0,0,0,1.4,0L12.375,33.3V22.285a11.872,11.872,0,0,1-4.5,0ZM10.125,0A10.125,10.125,0,1,0,20.25,10.125,10.125,10.125,0,0,0,10.125,0Zm0,5.344a4.786,4.786,0,0,0-4.781,4.781.844.844,0,0,1-1.687,0,6.476,6.476,0,0,1,6.469-6.469.844.844,0,0,1,0,1.688Z" transform="translate(1316 1587)" fill="#707070"/>
    <text id="Bachelor_in_Technology_B._T._K._Institute_of_Technology" data-name="Bachelor in Technology
B. T. K. Institute of Technology" transform="translate(1098 1180)" fill="#180c2f" font-size="20" font-family="Caveat" font-weight="700"><tspan x="0" y="0">Bachelor in Technology</tspan><tspan font-size="15"><tspan x="0" y="17">B. T. K. Institute of Technology</tspan></tspan></text>
    <text id="Internship_Kilobyte_Technologies" data-name="Internship
Kilobyte Technologies" transform="translate(1118 1465)" fill="#180c2f" font-size="20" font-family="Caveat" font-weight="700"><tspan x="0" y="0">Internship</tspan><tspan font-size="15"><tspan x="0" y="17">Kilobyte Technologies</tspan></tspan></text>
    <text id="Web_Developer_Kilobyte_Technologies" data-name="Web Developer
Kilobyte Technologies" transform="translate(1279 1553)" fill="#180c2f" font-size="20" font-family="Caveat" font-weight="700"><tspan x="0" y="0">Web Developer</tspan><tspan font-size="15"><tspan x="0" y="17">Kilobyte Technologies</tspan></tspan></text>
    <text id="Web_Developer_Mobistreak_Technologies" data-name="Web Developer
Mobistreak Technologies" transform="translate(1555 1586)" fill="#180c2f" font-size="20" font-family="Caveat" font-weight="700"><tspan x="0" y="0">Web Developer</tspan><tspan font-size="15"><tspan x="0" y="17">Mobistreak Technologies</tspan></tspan></text>
    <text id="_2014" data-name="2014" transform="translate(1153 1269)" fill="#180c2f" font-size="12" font-family="Caveat" font-weight="700"><tspan x="0" y="0">2014</tspan></text>
    <text id="_2017" data-name="2017" transform="translate(1153 1555)" fill="#180c2f" font-size="12" font-family="Caveat" font-weight="700"><tspan x="0" y="0">2017</tspan></text>
    <text id="_2018" data-name="2018" transform="translate(1316 1640)" fill="#180c2f" font-size="12" font-family="Caveat" font-weight="700"><tspan x="0" y="0">2018</tspan></text>
    <text id="_2019" data-name="2019" transform="translate(1591 1670)" fill="#180c2f" font-size="12" font-family="Caveat" font-weight="700"><tspan x="0" y="0">2019</tspan></text>
  </g>
</svg>
