<svg xmlns="http://www.w3.org/2000/svg" width="43.317" height="43.343" viewBox="0 0 43.317 43.343">
  <path id="Icon_awesome-fort-awesome-alt" data-name="Icon awesome-fort-awesome-alt" d="M18.034,20.609h-1.94a.317.317,0,0,0-.323.323V25.45a.317.317,0,0,0,.323.323h1.94a.317.317,0,0,0,.323-.323V20.932A.317.317,0,0,0,18.034,20.609Zm10.329,0h-1.94a.317.317,0,0,0-.323.323V25.45a.317.317,0,0,0,.323.323h1.94a.317.317,0,0,0,.323-.323V20.932A.328.328,0,0,0,28.363,20.609ZM39.9,9.677c-.2-.28-.4-.559-.62-.83a21.687,21.687,0,0,0-2.866-3.006c-.393-.341-.8-.664-1.215-.979-.14-.1-.28-.2-.419-.306A21.561,21.561,0,0,0,26.6,1,22.065,22.065,0,0,0,17.86,1,21.417,21.417,0,0,0,9.707,4.565c-.14.1-.28.2-.419.306-.419.315-.821.638-1.215.979-.262.227-.516.463-.769.7s-.5.481-.734.734c-.481.5-.935,1.031-1.363,1.573-.21.271-.419.551-.62.83a21.549,21.549,0,0,0-4,12.548c0,.175.009.35.009.524a1.171,1.171,0,0,1,.009.175c.009.114.009.236.017.35,0,.07.009.131.009.2,0,.114.009.218.017.323.009.07.009.14.017.21.009.1.017.2.026.306a1.7,1.7,0,0,0,.017.21c.009.1.026.21.035.315.009.07.017.131.026.2.009.114.026.227.044.341.009.052.017.114.026.166l.079.5c.009.052.017.1.026.149.026.114.044.236.07.35.017.07.026.14.044.21.017.087.044.184.061.28.017.079.035.149.052.227s.035.175.061.262.044.157.061.236.044.166.07.253.044.157.07.236.044.166.07.245.044.157.07.236.052.166.079.245c.052.14.1.288.149.428.035.087.061.166.087.245s.061.175.1.262c.026.07.052.131.079.2l.1.262c.026.061.052.131.079.192.035.087.079.175.114.262l.079.184c.044.087.079.175.122.262.026.061.052.114.079.175.044.087.087.184.131.271a1.138,1.138,0,0,0,.07.149c.052.1.1.192.149.288.009.017.017.026.026.044.192.358.384.717.594,1.066.017.035.044.07.061.1.061.1.114.192.175.288.026.044.052.079.079.122.052.1.114.184.175.28.026.044.052.079.079.122.061.1.122.184.184.28a.729.729,0,0,0,.07.1c.061.1.131.192.2.288.017.017.026.044.044.061a21.694,21.694,0,0,0,13.982,8.686c.079.009.149.026.227.035s.184.035.271.044.166.026.245.035.175.026.262.035l.253.026.253.026.271.026c.079.009.157.009.236.017.1.009.2.009.3.017.07,0,.149.009.218.009.114,0,.227.009.341.009a1.291,1.291,0,0,0,.184.009c.175.009.35.009.524.009s.35-.009.524-.009c.061,0,.122-.009.184-.009.114,0,.227,0,.341-.009.07,0,.149-.009.218-.009.1-.009.2-.009.3-.017a2.143,2.143,0,0,0,.236-.017l.271-.026.253-.026.253-.026c.087-.009.175-.026.262-.035s.166-.026.245-.035.184-.026.271-.044.149-.026.227-.035a21.121,21.121,0,0,0,13.99-8.948c.017-.017.026-.044.044-.061.07-.1.131-.192.2-.288a.729.729,0,0,1,.07-.1c.061-.1.122-.184.184-.28.026-.044.052-.079.079-.122.052-.1.114-.184.175-.28.026-.044.052-.079.079-.122.061-.1.114-.192.175-.288.017-.035.044-.07.061-.1.21-.35.4-.708.594-1.066.009-.017.017-.026.026-.044.052-.1.1-.192.149-.288a1.137,1.137,0,0,1,.07-.149c.044-.087.087-.184.131-.271.026-.061.052-.114.079-.175.044-.087.087-.175.122-.262l.079-.184c.044-.087.079-.175.114-.262.026-.061.052-.131.079-.192l.1-.262c.026-.07.052-.131.079-.2.035-.087.061-.175.1-.262s.061-.166.087-.245c.052-.14.1-.288.149-.428.026-.087.052-.166.079-.245s.044-.157.07-.236.044-.166.07-.245a2.41,2.41,0,0,0,.07-.236c.026-.087.044-.166.07-.253s.044-.157.061-.236.044-.175.061-.262.035-.149.052-.227.044-.184.061-.28c.017-.07.026-.14.044-.21.026-.114.052-.236.07-.35.009-.052.017-.1.026-.149l.079-.5c.009-.052.017-.114.026-.166.009-.114.026-.227.044-.341.009-.07.017-.131.026-.2.009-.1.026-.21.035-.315a1.7,1.7,0,0,1,.017-.21c.009-.1.017-.2.026-.306.009-.07.009-.14.017-.21.009.149.009.044.017-.061,0-.07.009-.131.009-.2.009-.114.017-.236.017-.35a1.172,1.172,0,0,0,.009-.175c.009-.175.009-.35.009-.524a21.6,21.6,0,0,0-4-12.557Zm-.891,22.65a19.838,19.838,0,0,1-2.936,3.749A19.479,19.479,0,0,1,26.1,41.424V34.8c0-5.121-7.742-5.121-7.742,0v6.624a18.965,18.965,0,0,1-3.749-1.153,19.5,19.5,0,0,1-6.222-4.194,19.838,19.838,0,0,1-2.936-3.749V26.1a.317.317,0,0,1,.323-.323H7.705a.317.317,0,0,1,.323.323v2.255h2.587V15.768a.317.317,0,0,1,.323-.323H12.87a.317.317,0,0,1,.323.323v2.263h2.578V15.768a.317.317,0,0,1,.323-.323h1.94a.317.317,0,0,1,.323.323v2.263h2.578V15.768c0-.419.568-.323.83-.323V7.562a1.13,1.13,0,0,1-.647-1,1.11,1.11,0,0,1,2.22,0,1.14,1.14,0,0,1-.647,1V7.9a7.727,7.727,0,0,1,1.678-.2c.821,0,1.608.306,2.3.306.629,0,1.328-.306,1.7-.306a.317.317,0,0,1,.323.323v4.229c0,.489-1.634.568-1.957.568-.752,0-1.451-.306-2.22-.306a7.919,7.919,0,0,0-1.818.245v2.683c.262,0,.83-.1.83.323v2.263H26.1V15.768a.317.317,0,0,1,.323-.323h1.94a.317.317,0,0,1,.323.323v2.263h2.578V15.768a.317.317,0,0,1,.323-.323h1.931a.317.317,0,0,1,.323.323V28.351H36.42V26.1a.317.317,0,0,1,.323-.323h1.94a.317.317,0,0,1,.323.323Z" transform="translate(-0.584 -0.563)" fill="#180c2f"/>
</svg>
