<svg xmlns="http://www.w3.org/2000/svg" width="17.064" height="15.314" viewBox="0 0 17.064 15.314">
  <g id="menu_3_" data-name="menu (3)" transform="translate(0 -26.256)">
    <g id="Group_43" data-name="Group 43" transform="translate(0 26.256)">
      <path id="Path_36" data-name="Path 36" d="M15.971,28.444H1.094a1.094,1.094,0,1,1,0-2.188H15.971a1.094,1.094,0,0,1,0,2.188Z" transform="translate(0 -26.256)" fill="#bdbac3"/>
      <path id="Path_37" data-name="Path 37" d="M9.845,225.367H1.094a1.094,1.094,0,0,1,0-2.188H9.845a1.094,1.094,0,0,1,0,2.188Z" transform="translate(0 -216.616)" fill="#bdbac3"/>
    </g>
    <path id="Path_39" data-name="Path 39" d="M15.971,422.29H1.094a1.094,1.094,0,1,1,0-2.188H15.971a1.094,1.094,0,0,1,0,2.188Z" transform="translate(0 -380.719)" fill="#bdbac3"/>
  </g>
</svg>
